<?xml version="1.0" standalone="no"?>
<!DOCTYPE svg PUBLIC "-//W3C//DTD SVG 20010904//EN"
 "http://www.w3.org/TR/2001/REC-SVG-20010904/DTD/svg10.dtd">
<svg version="1.0" xmlns="http://www.w3.org/2000/svg"
 width="512.000000pt" height="512.000000pt" viewBox="0 0 512.000000 512.000000"
 preserveAspectRatio="xMidYMid meet">

<g transform="translate(0.000000,512.000000) scale(0.100000,-0.100000)"
fill="#000000" stroke="none">
<path d="M9 4813 c-9 -25 -5 -31 65 -97 84 -81 120 -133 152 -226 14 -39 30
-67 41 -71 17 -6 17 -7 -2 -11 -18 -5 -18 -6 3 -7 24 -1 30 -16 10 -25 -7 -3
-2 -4 12 -2 18 4 32 -2 49 -19 13 -14 33 -25 45 -25 16 0 18 -2 7 -9 -12 -8
-9 -11 11 -16 15 -4 32 -4 39 1 8 4 9 3 5 -4 -4 -7 -1 -12 8 -12 9 0 16 -4 16
-9 0 -4 28 -11 62 -15 58 -6 167 -20 246 -32 18 -3 30 -9 27 -14 -7 -11 52
-43 65 -35 5 3 11 1 14 -4 4 -5 -2 -11 -11 -13 -10 -2 6 -10 35 -17 28 -7 52
-18 52 -23 0 -6 -7 -7 -16 -4 -9 3 -12 2 -8 -5 3 -6 18 -8 33 -5 18 5 22 4 12
-3 -8 -5 -12 -18 -8 -31 5 -18 3 -19 -10 -8 -14 11 -15 11 -12 -1 3 -8 21 -20
40 -26 28 -10 31 -13 14 -18 -19 -5 -19 -5 3 -12 20 -7 27 -21 20 -42 -2 -5
-6 -7 -11 -6 -13 5 -7 -15 10 -33 17 -17 17 -17 -4 -12 -13 4 -24 1 -27 -8 -3
-8 0 -11 9 -8 19 8 50 -22 34 -32 -6 -3 -15 0 -20 7 -7 11 -9 11 -9 -3 0 -9 6
-19 13 -22 6 -3 -1 -4 -18 -1 -16 2 -24 2 -17 -1 6 -3 9 -10 6 -16 -4 -6 1 -8
14 -4 11 4 23 2 27 -3 3 -6 -6 -13 -20 -17 -22 -5 -24 -9 -13 -22 11 -13 10
-15 -3 -10 -9 4 -20 -2 -27 -13 -11 -17 -9 -19 15 -19 52 0 288 -31 312 -41
20 -8 22 -12 10 -20 -7 -5 -9 -9 -4 -9 6 0 -3 -9 -20 -20 -21 -14 -25 -20 -12
-20 23 0 22 -12 -3 -28 -12 -7 -18 -17 -15 -22 3 -5 -3 -7 -14 -5 -11 2 -22
-3 -25 -12 -5 -11 -2 -14 10 -9 14 5 15 4 4 -9 -7 -8 -17 -12 -23 -8 -5 3 -7
2 -4 -4 3 -5 -5 -21 -18 -35 -13 -14 -20 -29 -17 -34 4 -5 5 -8 3 -6 -8 4 -51
-41 -51 -53 0 -6 -16 -25 -35 -42 -20 -18 -33 -37 -30 -45 3 -8 -4 -18 -17
-24 -13 -6 -16 -9 -8 -7 10 2 9 -2 -4 -12 -11 -8 -16 -15 -12 -15 5 0 -2 -9
-15 -21 -13 -11 -17 -17 -9 -13 9 4 7 -2 -5 -13 -11 -11 -23 -19 -27 -16 -5 2
-8 -1 -8 -6 0 -6 -8 -11 -17 -11 -14 0 -15 -2 -5 -9 11 -6 10 -11 -3 -25 -9
-9 -24 -16 -32 -16 -42 0 8 -17 89 -30 70 -12 92 -19 94 -32 3 -21 -51 -74
-61 -58 -4 7 -32 -12 -75 -50 -37 -33 -71 -60 -75 -60 -4 0 -32 -20 -61 -45
-28 -25 -56 -45 -60 -45 -4 0 -15 -7 -25 -16 -9 -8 -26 -16 -37 -17 -11 0 -20
-5 -19 -11 1 -5 -8 -14 -19 -21 -12 -6 -29 -17 -38 -24 -9 -8 -19 -11 -23 -7
-9 8 -43 -24 -43 -40 0 -23 147 -209 252 -319 109 -115 217 -205 343 -290 89
-60 254 -150 261 -143 2 3 11 63 19 134 73 619 264 1071 604 1427 152 158 283
259 483 374 l86 50 -44 59 c-24 32 -67 85 -95 117 -49 56 -52 57 -70 41 -11
-10 -19 -12 -19 -6 0 19 -16 14 -51 -15 -18 -16 -29 -21 -24 -13 5 8 -10 -2
-33 -22 -23 -21 -47 -38 -52 -38 -6 0 -10 -6 -10 -13 0 -7 -17 -23 -37 -35
-21 -11 -53 -35 -71 -51 -18 -17 -54 -45 -80 -62 -26 -18 -57 -41 -69 -52 -13
-11 -23 -17 -23 -12 0 5 -18 -9 -40 -30 -22 -21 -40 -35 -40 -30 0 4 -9 0 -20
-10 -11 -10 -17 -22 -13 -28 3 -5 1 -7 -5 -3 -5 3 -12 3 -14 -2 -1 -4 -31 -24
-65 -44 l-63 -37 -29 25 c-28 23 -29 27 -25 92 3 60 2 65 -11 48 -8 -11 -15
-16 -15 -11 0 4 -9 0 -20 -10 -23 -21 -6 -33 -191 130 -431 382 -908 719
-1287 909 l-52 26 -11 -27z m1051 -858 c-14 -17 -30 -20 -30 -6 0 5 8 12 18
14 9 3 19 5 21 6 2 0 -2 -6 -9 -14z m-50 -939 c0 -2 -8 -10 -17 -17 -16 -13
-17 -12 -4 4 13 16 21 21 21 13z"/>
<path d="M758 4223 c7 -3 16 -2 19 1 4 3 -2 6 -13 5 -11 0 -14 -3 -6 -6z"/>
<path d="M4965 4041 c-390 -144 -825 -357 -1215 -594 -242 -147 -660 -431
-649 -441 5 -4 255 -15 523 -22 148 -4 206 -3 202 5 -4 6 -2 11 4 11 6 0 8 5
5 10 -3 6 -13 10 -21 10 -8 0 -12 -4 -9 -10 3 -6 -1 -7 -9 -4 -18 7 -11 24 10
24 8 0 14 5 14 10 0 6 -3 9 -7 9 -20 -3 -34 2 -29 10 4 5 -4 7 -16 3 -17 -4
-20 -2 -15 11 4 10 1 17 -5 17 -6 0 -9 2 -6 5 3 4 21 -3 41 -14 34 -19 35 -19
30 0 -3 11 -14 19 -27 19 -19 1 -19 2 -3 11 9 5 17 15 17 21 0 9 -3 9 -12 0
-15 -15 -38 -16 -38 -2 0 6 8 10 18 10 15 0 15 2 2 11 -12 8 -10 9 9 7 16 -2
25 2 26 14 2 11 -2 15 -11 11 -9 -3 -12 0 -9 9 4 9 -6 20 -27 31 l-33 17 40
-5 c22 -3 34 -2 28 1 -7 3 -13 15 -13 26 0 17 5 20 29 16 26 -4 29 -2 25 19
-4 20 0 23 26 23 20 0 30 5 30 15 0 8 -4 15 -9 15 -5 0 -7 9 -4 20 3 13 14 20
29 20 12 0 26 4 29 10 4 6 -6 7 -27 4 -25 -5 -30 -4 -22 5 6 6 34 14 63 18 36
4 51 10 47 18 -7 20 3 24 34 15 23 -7 28 -5 23 6 -4 10 3 14 23 14 23 0 26 2
14 11 -12 8 -8 10 17 7 18 -3 30 -1 27 4 -3 5 75 8 173 6 120 -1 197 2 238 11
47 11 56 16 40 22 l-20 8 20 0 c40 2 92 26 87 40 -5 14 -2 14 48 -1 8 -3 12
-3 9 -1 -3 2 -4 15 -1 28 3 17 11 25 26 26 16 0 30 18 60 81 46 96 137 194
229 247 67 38 81 59 67 95 -5 14 -11 26 -12 26 -2 -1 -61 -22 -133 -49z"/>
<path d="M1250 3619 c0 -5 5 -7 10 -4 6 3 10 8 10 11 0 2 -4 4 -10 4 -5 0 -10
-5 -10 -11z"/>
<path d="M4740 3620 c0 -5 7 -7 15 -4 8 4 15 8 15 10 0 2 -7 4 -15 4 -8 0 -15
-4 -15 -10z"/>
<path d="M1053 3073 c4 -3 -3 -18 -15 -32 l-23 -26 27 24 c24 21 29 41 11 41
-4 0 -3 -3 0 -7z"/>
<path d="M2671 2645 c-46 -39 -49 -45 -34 -55 16 -10 15 -11 -7 -6 -21 4 -47
-17 -175 -139 -82 -79 -148 -145 -145 -148 11 -11 440 -20 440 -9 0 6 8 13 18
15 16 4 16 5 -1 6 -10 0 -15 6 -12 11 5 9 -15 15 -37 11 -5 0 -8 4 -8 9 0 6
-8 10 -17 11 -12 0 -8 5 12 15 29 13 28 14 -25 8 -40 -4 -51 -3 -40 5 8 6 33
11 54 11 52 0 34 16 -22 19 -7 1 -10 6 -7 11 3 6 -1 10 -9 10 -10 0 -13 6 -10
15 5 12 15 14 43 9 33 -7 35 -6 22 9 -7 10 -24 17 -38 17 -14 0 -21 4 -18 10
3 6 25 10 48 11 35 0 38 2 20 9 -13 5 -23 16 -23 23 0 8 -10 19 -22 25 -22 10
-21 11 9 11 17 1 38 4 47 7 24 9 8 25 -19 18 -17 -4 -26 0 -33 13 -14 28 -5
40 31 36 26 -3 28 -1 12 6 -16 8 -17 10 -3 10 22 1 32 17 14 24 -8 3 -37 -14
-65 -38z m-6 -135 c-3 -5 -10 -10 -16 -10 -5 0 -9 5 -9 10 0 6 7 10 16 10 8 0
12 -4 9 -10z"/>
<path d="M2740 2550 c0 -5 5 -10 10 -10 6 0 10 5 10 10 0 6 -4 10 -10 10 -5 0
-10 -4 -10 -10z"/>
<path d="M2748 2483 c7 -3 16 -2 19 1 4 3 -2 6 -13 5 -11 0 -14 -3 -6 -6z"/>
<path d="M1720 1830 c0 -6 10 -15 23 -21 l22 -10 -22 5 c-23 4 -23 4 -23 -129
l0 -133 103 -6 c56 -3 230 -11 387 -17 157 -6 368 -14 470 -18 102 -5 188 -5
192 -2 4 4 0 7 -10 8 -38 3 -277 58 -280 64 -2 5 -10 5 -18 2 -8 -3 -94 27
-191 66 -187 74 -262 96 -295 85 -14 -4 -18 -3 -13 6 4 7 2 10 -6 9 -25 -5
-153 30 -241 66 -98 39 -98 39 -98 25z"/>
<path d="M2898 1493 c7 -3 16 -2 19 1 4 3 -2 6 -13 5 -11 0 -14 -3 -6 -6z"/>
<path d="M1420 1200 c0 -21 50 -110 82 -146 86 -98 163 -138 333 -172 311 -64
639 -72 915 -23 250 44 299 26 -557 199 -417 84 -761 152 -765 152 -5 0 -8 -5
-8 -10z"/>
<path d="M1165 649 c-10 -31 -45 -179 -58 -250 -11 -62 -12 -82 -2 -107 21
-47 94 -61 129 -24 8 10 29 84 46 165 17 80 33 152 36 160 3 10 -14 21 -58 37
-35 12 -69 25 -75 27 -7 3 -15 -1 -18 -8z"/>
</g>
</svg>
