<svg xmlns="http://www.w3.org/2000/svg" version="1.1" xmlns:xlink="http://www.w3.org/1999/xlink" xmlns:svgjs="http://svgjs.dev/svgjs" viewBox="0 0 800 400"><path d="M219.33197004723297 235.9086974062302C225.9777082674478 233.3526413454392 242.04048445152984 222.45577077048802 254.3095396273111 222.45577077048802C266.57859480309236 222.45577077048802 271.97769270348294 235.73829289573214 283.90594465660797 235.9086974062302C295.834196609733 236.07910191672826 304.65035047936186 223.69344563621067 317.0898130648111 223.35263661521458C329.52927565026033 223.0118275942185 336.7669361727213 234.45577183860325 349.3768003694986 234.11496571677708C361.9866645662759 233.7741595949509 371.8700764315103 221.0477095522263 383.4575193636392 221.55892018455052C395.04496229576813 222.07013081687472 399.9687220613931 236.46474187034153 410.36334211754547 236.8055479921677C420.7579621736978 237.14635411399388 426.7490046541666 223.69344273704075 438.16604597496735 223.35263661521458C449.5830872957681 223.0118304933884 458.18397230553376 235.86384831565402 470.45303327965485 235.01183156150364C482.72209425377594 234.15981480735326 490.4709901277994 217.84591664451145 502.74005110192047 218.8683379091599C515.0091120760416 219.89075917380833 523.4396012728189 240.3929961122849 535.027038406608 240.3929961122849C546.614475540397 240.3929961122849 554.1839677278971 219.72035466331027 563.7265623323892 218.8683379091599C573.2691569368814 218.0163211550095 576.2198307650065 236.59031254905247 585.2512205355142 235.9086974062302C594.282610306022 235.22708226340794 602.5696061556314 215.79210332053685 611.260192703483 215.2808897890427C619.9507792513346 214.76967625754855 627.2422678987955 229.81002995627904 630.991149734733 233.21809987205052 " fill="none" stroke-width="4" stroke="url(&quot;#SvgjsLinearGradient1000&quot;)" stroke-linecap="round" transform="matrix(1.7017983509467207,0,0,1.7017983509467207,-303.8082972746071,-179.6499451585871)" stroke-dasharray="0 6"></path><defs><linearGradient id="SvgjsLinearGradient1000"><stop stop-color="hsl(105, 69%, 40%)" offset="0"></stop><stop stop-color="hsl(55, 94%, 54%)" offset="1"></stop></linearGradient></defs></svg>